<svg xmlns="http://www.w3.org/2000/svg" width="83" height="28" viewBox="0 0 83 28">
  <g id="Gruppe_7" data-name="Gruppe 7" transform="translate(0.188)">
    <rect id="Rechteck_5" data-name="Rechteck 5" width="83" height="28" rx="6" transform="translate(-0.188)" fill="rgba(255,255,255,0)"/>
    <path id="Rechteck_5_-_Kontur" data-name="Rechteck 5 - Kontur" d="M6,1A5.006,5.006,0,0,0,1,6V22a5.006,5.006,0,0,0,5,5H77a5.006,5.006,0,0,0,5-5V6a5.006,5.006,0,0,0-5-5H6M6,0H77a6,6,0,0,1,6,6V22a6,6,0,0,1-6,6H6a6,6,0,0,1-6-6V6A6,6,0,0,1,6,0Z" transform="translate(-0.188)" fill="#fff"/>
    <path id="Pfad_13" data-name="Pfad 13" d="M6.877-9.47v1.69H2.99v2.21H5.967v1.625H2.99V-1.69H6.877V0H.78V-9.47Zm2.4,0a1.865,1.865,0,0,1,.241.013.614.614,0,0,1,.175.049.586.586,0,0,1,.149.1,1.708,1.708,0,0,1,.163.176l4.5,5.688q-.026-.273-.039-.53t-.013-.484V-9.47h1.937V0H15.249a1.054,1.054,0,0,1-.429-.078.918.918,0,0,1-.338-.286L10.017-6.006q.019.247.032.484t.013.445V0H8.125V-9.47Z" transform="translate(53.812 19)" fill="#fff"/>
    <rect id="Rechteck_6" data-name="Rechteck 6" width="39" height="22" rx="3" transform="translate(2.812 3)" fill="#fff"/>
    <path id="Pfad_12" data-name="Pfad 12" d="M9.373-4.738a4.966,4.966,0,0,1-.354,1.895,4.433,4.433,0,0,1-1,1.5,4.525,4.525,0,0,1-1.55.988A5.486,5.486,0,0,1,4.459,0H.78V-9.47H4.459a5.441,5.441,0,0,1,2.012.358,4.59,4.59,0,0,1,1.55.988,4.4,4.4,0,0,1,1,1.5A4.948,4.948,0,0,1,9.373-4.738Zm-2.249,0a4.126,4.126,0,0,0-.182-1.268,2.708,2.708,0,0,0-.523-.959,2.272,2.272,0,0,0-.835-.6,2.836,2.836,0,0,0-1.125-.211H2.99V-1.69H4.459A2.836,2.836,0,0,0,5.584-1.9a2.272,2.272,0,0,0,.835-.6,2.708,2.708,0,0,0,.523-.959A4.149,4.149,0,0,0,7.124-4.738Zm9.4-4.732v1.69H12.636v2.21h2.977v1.625H12.636V-1.69h3.887V0h-6.1V-9.47Z" transform="translate(13.812 19)"/>
  </g>
</svg>
