<svg xmlns="http://www.w3.org/2000/svg" width="116.224" height="15.144" viewBox="0 0 116.224 15.144">
  <path id="Vereinigungsmenge_2" data-name="Vereinigungsmenge 2" d="M112.928,15.143V9.052H102.249v6.091H99.328V6.008h16.52v9.136Zm-36,0V.041h2.962v12.14H93.029a4.319,4.319,0,0,1-2.587,2.962Zm-25.656,0a5.974,5.974,0,0,1,3.8-3.046h10.6V8.969H52.146V.041h16.52A4.614,4.614,0,0,1,65.454,3H55.025l.041,3H68.583v9.136Zm-21.943,0A4.167,4.167,0,0,1,26.24,12.1h17.4a4.052,4.052,0,0,1-3.046,3.046ZM8.051,15.1V3.128L7.8,3.046H3.046A4.194,4.194,0,0,1,0,.041L19.065,0V.041a4.261,4.261,0,0,1-3.046,3H11.264l-.25.083V15.1ZM29.327,9.011A4.23,4.23,0,0,1,26.24,5.965h17.4a4.05,4.05,0,0,1-3.046,3.046Zm72.588-5.965A4.247,4.247,0,0,1,98.869,0h17.355a4.115,4.115,0,0,1-3.046,3.046Zm-72.588,0A4.232,4.232,0,0,1,26.24,0h17.4a4.052,4.052,0,0,1-3.046,3.046Z" fill="#fff"/>
</svg>
